<?xml version="1.0" encoding="UTF-8" standalone="no"?>
<!-- Created with Inkscape (http://www.inkscape.org/) -->

<svg
   width="512"
   height="512"
   viewBox="0 0 135.46667 135.46667"
   version="1.1"
   id="svg1"
   xml:space="preserve"
   inkscape:version="1.3 (0e150ed6c4, 2023-07-21)"
   sodipodi:docname="logo_saur.svg"
   xmlns:inkscape="http://www.inkscape.org/namespaces/inkscape"
   xmlns:sodipodi="http://sodipodi.sourceforge.net/DTD/sodipodi-0.dtd"
   xmlns="http://www.w3.org/2000/svg"
   xmlns:svg="http://www.w3.org/2000/svg"><sodipodi:namedview
     id="namedview1"
     pagecolor="#ffffff"
     bordercolor="#000000"
     borderopacity="0.25"
     inkscape:showpageshadow="2"
     inkscape:pageopacity="0.0"
     inkscape:pagecheckerboard="0"
     inkscape:deskcolor="#d1d1d1"
     inkscape:document-units="mm"
     inkscape:zoom="0.54236817"
     inkscape:cx="303.29951"
     inkscape:cy="541.14533"
     inkscape:window-width="2496"
     inkscape:window-height="1417"
     inkscape:window-x="-8"
     inkscape:window-y="-8"
     inkscape:window-maximized="1"
     inkscape:current-layer="g1" /><defs
     id="defs1" /><g
     inkscape:label="Calque 1"
     inkscape:groupmode="layer"
     id="layer1"
     transform="translate(-47.491522,-55.429396)"><g
       id="g1"
       transform="translate(-7.3174465,123.42093)"><path
         style="fill:#00b2a9;fill-opacity:1;stroke-width:1.47013"
         d="m 106.09995,62.020997 c -13.049672,-1.12746 -25.763642,-6.45562 -35.617552,-15.088 4.83383,0.67659 10.03116,2.89232 15.1484,3.61476 23.482212,4.17589 47.699052,4.2304 71.260252,0.63186 6.33303,-0.89039 12.44443,-2.85328 18.61151,-4.40504 -4.91543,4.94013 -11.61271,8.5558 -18.18909,11.20788 -8.56914,3.67394 -17.91725,4.20341 -27.11036,4.19387 -8.03179,0.11173 -16.07886,0.28417 -24.10316,-0.15533 z m 0.58346,-18.0757 c -7.580292,-1.67964 -14.988812,-6.1181 -19.077362,-12.7345 15.633782,5.32992 32.518822,5.57395 48.852472,4.43684 7.4927,-0.50052 14.87407,-2.07867 21.97526,-4.43531 -3.93058,6.31189 -11.01349,10.69342 -18.19131,12.56357 -11.13516,0.78877 -22.42542,1.0294 -33.55906,0.1694 z m 2.52831,-17.85154 c -5.7056,-1.45854 -10.428402,-6.35407 -11.460372,-12.18397 5.419652,2.49187 11.242142,4.03381 17.256512,3.71693 9.03168,-0.27571 18.31371,0.97468 27.14631,-1.33091 1.62036,0.2542 7.39784,-4.45542 5.75465,-0.61465 -1.72755,5.23126 -6.46632,9.4708 -11.73571,10.75815 -8.9801,-0.0832 -18.01944,0.48491 -26.96139,-0.34555 z m 36.5544,-18.96167 c -8.14315,-3.94382 -17.45884,-2.56177 -26.21757,-3.06502 -3.78778,-0.16623 -7.68111,0.069 -11.40289,-0.3482 -4.8018,-2.29394 -9.684762,-6.532061 -10.163172,-12.025243 7.888872,4.506022 17.236232,3.449076 25.959592,3.81208 4.51177,0.165844 9.11384,-0.04469 13.56991,0.3533 5.15127,2.059984 9.95794,6.496263 10.60209,12.151483 -0.86557,-0.0297 -1.56995,-0.58482 -2.34796,-0.8784 z M 97.967448,-15.23249 c 0.91065,-6.017532 6.271472,-10.243525 12.139492,-10.894097 8.96886,-1.2396 18.21332,-1.3888 27.1745,-0.03799 5.54878,1.23142 9.76972,6.447851 10.93477,11.791566 -5.1267,-2.143957 -10.66612,-3.852008 -16.37523,-3.498031 -8.85567,0.209022 -17.83795,-0.72267 -26.59929,0.831327 -1.63834,-0.573379 -7.429532,4.36292 -7.274242,1.807223 z m -9.58396,-17.627027 c 8.81649,-10.226845 23.316312,-12.9171 36.200302,-12.940743 12.36173,0.220778 26.18595,3.591886 33.84514,14.053447 -5.11386,-1.101591 -10.34533,-2.988553 -15.72405,-3.359335 -16.06393,-1.646058 -32.53473,-1.834218 -48.383342,1.600229 -1.11658,-0.225412 -9.36904,4.152502 -5.93805,0.646402 z m -17.48539,-15.146388 c 8.72911,-7.351889 19.62497,-12.231926 30.864612,-14.086053 14.43862,-0.947781 28.98025,-1.030493 43.40981,0.09595 11.28958,2.057122 22.14767,7.061735 30.73634,14.714667 -5.92551,-1.239117 -12.22051,-3.735218 -18.47117,-4.643155 -12.66492,-2.457491 -25.67516,-1.576956 -38.50249,-1.868911 -12.27878,0.04444 -24.724672,-0.0904 -36.651952,3.272442 -3.99336,0.790961 -8.73588,2.665913 -12.15367,3.313655 z"
         id="path4"
         sodipodi:nodetypes="cccccccccccccccccccccccccccccscccccssccccccccccccccc" /></g></g></svg>
